<?xml version="1.0" encoding="UTF-8" standalone="no"?>
<svg
   width="139.973"
   height="166.893"
   viewBox="0 0 139.973 166.893"
   version="1.1"
   id="svg1"
   sodipodi:docname="hed_clean.svg"
   inkscape:version="1.3 (0e150ed, 2023-07-21)"
   xmlns:inkscape="http://www.inkscape.org/namespaces/inkscape"
   xmlns:sodipodi="http://sodipodi.sourceforge.net/DTD/sodipodi-0.dtd"
   xmlns="http://www.w3.org/2000/svg"
   xmlns:svg="http://www.w3.org/2000/svg">
  <defs
     id="defs1" />
  <sodipodi:namedview
     id="namedview1"
     pagecolor="#ffffff"
     bordercolor="#000000"
     borderopacity="0.25"
     inkscape:showpageshadow="2"
     inkscape:pageopacity="0.0"
     inkscape:pagecheckerboard="0"
     inkscape:deskcolor="#d1d1d1"
     inkscape:zoom="4.1650888"
     inkscape:cx="69.986503"
     inkscape:cy="83.431595"
     inkscape:window-width="1392"
     inkscape:window-height="942"
     inkscape:window-x="0"
     inkscape:window-y="25"
     inkscape:window-maximized="0"
     inkscape:current-layer="svg1" />
  <path
     id="Path_155"
     data-name="Path 155"
     d="m 17.044,131.614 c 4.1,8.017 9.9,33.162 52.887,34.756 v 0 h 0.054 v 0 c 42.989,-1.592 48.728,-26.738 52.832,-34.756 4.104,-8.018 2.656,-43.881 1.207,-51.195 -1.292,-6.52 -7.368,-32.467 -16.556,-47.773 -1.535,4.122 -4.041,11.8 -3.148,15.925 0,0 -14.784,-15.414 -33.658,-13.212 -18.874,2.202 -26.894,5.977 -34.916,13.212 0,0 -0.2,-9.829 -3.469,-15.733 -9.124,15.331 -15.154,41.089 -16.44,47.581 -1.449,7.314 -2.898,43.174 1.207,51.195 z"
     fill="#dbdbdb" />
  <path
     id="Path_156"
     data-name="Path 156"
     d="m 17.044,131.615 c 4.1,8.017 9.9,33.162 52.887,34.756 v 0 h 0.054 v 0 c 42.989,-1.592 48.728,-26.738 52.832,-34.756 4.104,-8.018 2.656,-43.881 1.207,-51.195 C 122.575,73.106 115.111,41.337 103.98,27.575 94.313,15.62 72.426,15.729 70.138,15.775 67.829,15.73 45.552,15.616 35.879,27.575 24.749,41.337 17.285,73.107 15.835,80.42 c -1.45,7.313 -2.896,43.174 1.209,51.195 z"
     fill="none"
     stroke="#535453"
     stroke-width="1" />
  <g
     id="Group_262"
     data-name="Group 262"
     transform="translate(0.5,57.63)">
    <path
       id="Path_157"
       data-name="Path 157"
       d="m 598.577,142.633 c 0,0 -5.977,12.9 -10.853,16.2 -4.876,3.3 -7.391,10.6 -5.189,11.2 2.202,0.6 5.724,1.327 10.38,-5.853 4.656,-7.18 5.379,-10.335 5.379,-10.335 l 4.53,-16.474 c 0,0 -3.618,-2.759 -6.607,2.117 -2.989,4.876 -2.376,9.437 -3.94,11.639 -1.564,2.202 -3.275,6.488 -3.767,6.92"
       transform="translate(-581.731,-136.592)"
       fill="none"
       stroke="#535453"
       stroke-width="1" />
    <line
       id="Line_58"
       data-name="Line 58"
       x1="4.783"
       y1="2.5190001"
       transform="translate(9.074,30.416)"
       fill="none"
       stroke="#535453"
       stroke-width="1"
       x2="0"
       y2="0" />
  </g>
  <g
     id="Group_263"
     data-name="Group 263"
     transform="translate(118.38,57.63)">
    <path
       id="Path_158"
       data-name="Path 158"
       d="m 697.015,142.633 c 0,0 5.976,12.9 10.852,16.2 4.876,3.3 7.392,10.6 5.19,11.2 -2.202,0.6 -5.725,1.327 -10.381,-5.853 -4.656,-7.18 -5.379,-10.335 -5.379,-10.335 l -4.529,-16.474 c 0,0 3.617,-2.759 6.605,2.117 2.988,4.876 2.376,9.437 3.941,11.639 1.565,2.202 3.274,6.488 3.766,6.92"
       transform="translate(-692.768,-136.592)"
       fill="none"
       stroke="#535453"
       stroke-width="1" />
    <line
       id="Line_59"
       data-name="Line 59"
       y1="2.5190001"
       x2="4.783"
       transform="translate(7.235,30.416)"
       fill="none"
       stroke="#535453"
       stroke-width="1"
       x1="0"
       y2="0" />
  </g>
  <path
     id="Path_159"
     data-name="Path 159"
     d="m 62.878,13.34 c 0,0 -5.584,5.347 -8.257,1.809 -2.673,-3.538 11.4,-13.762 11.4,-13.762 0,0 4.482,-2.123 8.178,0.865 3.696,2.988 12.051,8.727 10.538,11.717 -1.513,2.99 -5.19,1.1 -7.628,-1.415"
     fill="none"
     stroke="#535453"
     stroke-width="1" />
</svg>
